<svg xmlns="http://www.w3.org/2000/svg" viewBox="0 0 1440 320"><path fill="#151541" fill-opacity="1" d="M0,32L34.3,26.7C68.6,21,137,11,206,58.7C274.3,107,343,213,411,218.7C480,224,549,128,617,112C685.7,96,754,160,823,170.7C891.4,181,960,139,1029,133.3C1097.1,128,1166,160,1234,165.3C1302.9,171,1371,149,1406,138.7L1440,128L1440,320L1405.7,320C1371.4,320,1303,320,1234,320C1165.7,320,1097,320,1029,320C960,320,891,320,823,320C754.3,320,686,320,617,320C548.6,320,480,320,411,320C342.9,320,274,320,206,320C137.1,320,69,320,34,320L0,320Z"></path></svg>